<?xml version="1.0" encoding="utf-8"?>
<!-- Generator: Adobe Illustrator 26.0.3, SVG Export Plug-In . SVG Version: 6.00 Build 0)  -->
<svg version="1.1" id="Layer_1" xmlns="http://www.w3.org/2000/svg" xmlns:xlink="http://www.w3.org/1999/xlink" x="0px" y="0px"
	 viewBox="0 0 357 357" style="enable-background:new 0 0 357 357;" xml:space="preserve">
<style type="text/css">
	.st0{fill:#C70000;}
	.st1{fill:#c70000;}
</style>
<g>
	<g>
		<path class="st0" d="M111.54,25.2c0.02-0.01,0.04-0.02,0.04-0.02c-0.02,0-0.04,0-0.06-0.01c-0.01,0.02-0.02,0.03-0.03,0.06
			c0.02,0.01,0.03,0.01,0.05,0.02c0.01-0.02,0.03-0.04,0.04-0.07L111.54,25.2z"/>
		<path class="st0" d="M113.74,24.48c0.02,0,0.04,0.01,0.06,0.01c0.01-0.02,0.02-0.03,0.03-0.06L113.74,24.48z"/>
		<path class="st0" d="M72.64,309.44c-0.03,0-0.06,0-0.09,0c0,0.02,0.01,0.04,0.01,0.06c0.02,0,0.04,0.02,0.07,0.02
			C72.63,309.48,72.63,309.46,72.64,309.44z"/>
		<path class="st0" d="M122,21.5c0.01,0,0.01,0,0.01,0c0.02-0.02,0.03-0.03,0.05-0.04L122,21.5z"/>
		<path class="st1" d="M338.4,104.25c-8.49-17.72-19.57-33.72-34.76-46.56c0,0,0,0,0,0c-0.33-0.22-0.63-0.8-1.03-0.14
			c-0.05,0.08,0.36,0.43,0.56,0.65c0.24,1.16,1.87,1.64,1.57,3.32c-1.7-0.36-2.37-1.8-3.34-2.78c-3.14-3.19-5.78-7.13-9.7-9.24
			c-5.27-2.83-10.13-6.24-15.03-9.56c-26.82-18.22-56.42-27.3-88.81-28.39c-10.8-0.36-21.08,2.89-31.71,2.73
			c-10.3-0.16-19.85,2.7-29.32,6.22c-1.49,0.55-3,1.68-4.81,1.01c-1.62,1.72-3.77,2.03-5.96,2.23c-0.5,0.99-1.35,0.97-2.25,0.76
			c-0.49,1.01-1.28,1.16-2.25,0.75c-0.5,0.95-1.15,1.48-2.23,0.76c0.16,1.07-0.91,1.02-1.38,1.18c-22.31,7.47-39.79,21.97-56,38.32
			c-13.3,13.42-23.13,29.11-30.22,46.55c-0.84,2.07-2.01,4.1-1.61,7.24c2.6-3.36,3.86-6.67,5.42-9.81
			c6.19-12.44,11.98-25.14,22.63-34.67c0.45-0.46,0.93-1.44,1.57-0.76c0.45,0.48-0.5,1-0.97,1.4c-5.38,8.19-11.77,15.79-15.5,25.45
			c2.67-0.98,2.85-4.07,6.39-4.98c-4,6.56-6.45,12.85-10.31,18.41c-0.34,0.49-0.88,1.11-1.39,1.19c-2.07,0.33-2.59,1.93-3.39,3.48
			c-10.3,20.13-12.68,41.79-12.5,63.96c0.04,5.32,0.94,10.63,0.05,16c-0.14-1.07-0.28-2.14-0.42-3.21
			c-0.13-0.38-0.25-0.75-0.38-1.13c-0.09-1.12-0.17-2.24-0.26-3.36c0.12-0.89,0.15-1.76-0.55-2.47c-0.34-1.92-0.68-3.83-1.02-5.75
			c0.07-0.58,0.08-1.14-0.45-1.55c-0.05-0.48-0.11-0.96-0.16-1.44c0-3.87,0-7.73,0-11.6c-1.5,6.31-1.77,12.66-1.3,19.05
			c0.05,1.02,0.11,2.03,0.16,3.05c-0.21,0.62-0.09,1.18,0.35,1.67c0.02,0.41,0.04,0.82,0.06,1.23c-0.05,0.08-0.17,0.17-0.15,0.23
			c0.04,0.17,0.14,0.33,0.21,0.5c0.02,0.53,0.05,1.06,0.07,1.58c0.01,0.25,0.01,0.49,0.02,0.74c0.03,0.51,0.06,1.01,0.08,1.52
			c-0.08,0.82-0.02,1.61,0.52,2.29c0.06,0.98,0.12,1.95,0.17,2.93c0.04,0.24,0.07,0.48,0.11,0.73c0.16,0.6,0.32,1.19,0.47,1.79
			l-0.13,0.19l0.18,0.18c0.02,0.28,0.04,0.57,0.06,0.85c-0.12,0.92-0.23,1.85,0.52,2.6c-0.07,1.94,0.4,3.79,0.98,5.62
			c0.24,2.78,0.92,5.45,2.02,9c0.5-3.73-0.62-6.32-0.79-9c-0.05-0.5-0.1-1.01-0.15-1.51c-0.1-0.34-0.21-0.68-0.31-1.02
			c-0.03-0.63-0.06-1.25-0.09-1.88c0.06-0.09,0.17-0.18,0.16-0.26c-0.03-0.19-0.12-0.38-0.18-0.57c0-0.49,0-0.99,0-1.48
			c0.07-0.49,0.13-0.97,0.2-1.46c1.36-0.18,1.22,0.78,1.34,1.65c0.46,3.32,0.79,6.67,1.5,9.94c1.25,5.72,2.39,11.52,5.55,17.43
			c0.97-3.48-0.89-6.03-0.19-8.75c3.43,13.29,8.34,25.85,15.98,37.33c1.44,2.17,1.49,5.52,3.33,7.75
			c4.32,5.23,8.71,10.4,12.91,15.74c4.87,6.19,8.36,13.48,14.77,18.43c0.5,0.5,1.01,1.01,1.51,1.51c0.18,0.18,0.35,0.36,0.53,0.53
			c1.57,2.11,3.72,3.55,5.85,5.01c0,0,0,0,0,0c0.56,0.53,1.03,0.45,1.47,0.22c-0.36-0.27-0.71-0.7-1.07-0.64
			c-0.4-0.48-0.81-0.97-1.21-1.45c0,0-0.01-0.06-0.03-0.12l0.03,0.12c1.92-1.31,2.46,0.64,3.47,1.48l-0.01,0
			c-0.41,0.1-0.79,0.41-1.18,0.61c0.39,0.29,0.78,0.38,1.19-0.61c6.42,4.47,12.5,9.54,19.3,13.31
			c37.47,20.79,77.26,27.69,119.47,18.87c15.74-3.29,30.97-8.5,44.93-16.17c19.68-10.81,36.55-25.47,50.47-43.21
			c21.26-27.11,33.25-57.8,35.58-92.27c0.48-7.09-0.32-14.21,0.68-21.23C351.67,148.77,348.76,125.87,338.4,104.25z M311.8,68.88
			c0.43,0.22,0.89,0.69,0.56,1.02c-0.4,0.39-0.82,0.03-0.85-0.57c-2-1.11-3.15-3.08-4.73-4.62c-0.59-0.57-1.01-1.32-1.18-2.31
			C308.32,63.91,309.86,66.6,311.8,68.88z M74.34,311.47l0.03,0.11C74.36,311.53,74.34,311.47,74.34,311.47z M74.09,311.41
			c-0.49-0.65-1.41-0.98-1.53-1.92c-0.86-0.18-1.44-0.62-1.48-1.58c-0.42-0.78-0.76-1.79-1.3-2.27c0.53,0.48,0.87,1.49,1.3,2.27
			c0.86,0.18,1.94,0.14,1.57,1.52C74.01,309.4,74.98,309.68,74.09,311.41z"/>
		<path class="st0" d="M116.06,23.74c0.01-0.01,0.01-0.02,0.02-0.03l-0.04,0.02c0.02-0.01,0.04-0.02,0.04-0.02
			c-0.01,0-0.01-0.01-0.02-0.01c-0.02,0.02-0.03,0.03-0.05,0.05C116.02,23.74,116.04,23.74,116.06,23.74z"/>
		<path class="st0" d="M210.3,11.38c-8.15-5.21-60.46-4.75-68.02,2.11C164.96,11.09,187.52,8.24,210.3,11.38z"/>
		<path class="st0" d="M44.02,287.02c-4.62-10.45-10.49-19.07-15.27-28.28C29.16,264.07,38.81,282.11,44.02,287.02z"/>
		<path class="st0" d="M25.44,257.57c-3.22-8.61-6.25-17.36-9.92-25.87C17.89,240.65,19.57,249.86,25.44,257.57z"/>
		<path class="st0" d="M122.06,21.46c-0.01,0-0.02,0-0.02,0c-0.01,0.01-0.03,0.03-0.04,0.04C122,21.5,122.06,21.46,122.06,21.46z"/>
		<path class="st0" d="M109.29,25.93c-0.01,0.02-0.01,0.03-0.02,0.04c0.02,0.01,0.03,0.02,0.05,0.03c0-0.02,0-0.03,0-0.05
			C109.31,25.94,109.3,25.94,109.29,25.93z"/>
		<path class="st0" d="M113.83,24.44c-0.02-0.01-0.04-0.01-0.06-0.01c-0.01,0.02-0.02,0.04-0.03,0.06
			C113.74,24.48,113.83,24.44,113.83,24.44z"/>
		<path class="st0" d="M111.53,25.17c0.48-1.04,1.33-1,2.25-0.75c0.51-0.99,1.22-1.37,2.28-0.73c1.61-1.77,3.67-2.34,5.98-2.23
			c2.04-2.5,5.97-1.7,8.41-4.89c-8.58,1.95-16.13,4.89-23.5,8.05c0.34,1.29,1.63,0.72,2.34,1.31
			C109.72,24.77,110.67,25.1,111.53,25.17z"/>
		<path class="st0" d="M120.19,343.6c-2.81-1-4.69-2.38-7.06-2.42C115.1,342.32,116.78,344.22,120.19,343.6z"/>
		<path class="st0" d="M91.04,327.72c-2.9-1.85-5.81-3.69-8.71-5.54c-0.07-0.31-0.12-0.69-0.56-0.45c-0.06,0.03,0.14,0.53,0.22,0.82
			c1.34,4.11,5,4.78,8.49,5.71c0.28,0.59,0.9,1,1.3,0.54C92.36,328.13,91.26,328.13,91.04,327.72z"/>
	</g>
	
</g>
</svg>
